#N canvas 48 162 1920 966 12;
#X floatatom 72 60 12 0 0 0 - - - 0;
#X obj 72 89 osc~;
#X obj 72 154 hip~ 5;
#X obj 72 124 *~;
#X floatatom 177 219 5 0 0 0 - - - 0;
#X obj 177 122 +;
#X obj 177 60 metro 100;
#X obj 385 310 tgl 19 0 empty empty UP 0 -10 0 12 #ff8300 #000000 #000000 0 1;
#X obj 177 181 spigot;
#X floatatom 177 92 5 0 0 0 - - - 0;
#X floatatom 220 123 5 0 0 0 - - - 0;
#X obj 176 266 metro 100;
#X obj 452 311 tgl 19 0 empty empty LOW 0 -10 0 12 #0400ff #000000 #000000 0 1;
#X obj 176 379 spigot;
#X floatatom 176 299 5 0 0 0 - - - 0;
#X floatatom 236 337 5 0 1 0 - - - 0;
#X obj 176 338 +;
#X obj 236 373 > 0;
#X obj 220 154 < 1;
#X obj 416 263 tgl 19 0 empty empty RESET 0 -10 0 12 #faff00 #000000 #000000 0 1;
#X msg 317 123 0;
#X msg 236 303 1;
#X msg 317 155 0;
#X obj 47 191 dac~;
#X floatatom 757 56 12 0 0 0 - - - 0;
#X obj 757 82 osc~;
#X obj 757 141 hip~ 5;
#X obj 757 112 *~;
#X floatatom 656 197 5 0 0 0 - - - 0;
#X obj 656 129 +;
#X obj 656 70 metro 100;
#X obj 656 162 spigot;
#X floatatom 656 96 5 0 0 0 - - - 0;
#X floatatom 597 130 5 0 0 0 - - - 0;
#X obj 658 247 metro 100;
#X obj 657 357 spigot;
#X floatatom 658 279 5 0 0 0 - - - 0;
#X floatatom 595 267 5 0 1 0 - - - 0;
#X obj 658 312 +;
#X obj 595 303 > 0;
#X obj 597 162 < 1;
#X msg 597 99 0;
#X msg 595 233 1;
#X msg 595 200 0;
#X obj 757 172 dac~;
#X connect 0 0 1 0;
#X connect 1 0 3 0;
#X connect 2 0 23 1;
#X connect 3 0 2 0;
#X connect 4 0 3 1;
#X connect 5 0 8 0;
#X connect 5 0 10 0;
#X connect 6 0 9 0;
#X connect 7 0 6 0;
#X connect 7 0 34 0;
#X connect 8 0 4 0;
#X connect 9 0 5 0;
#X connect 10 0 5 1;
#X connect 10 0 18 0;
#X connect 11 0 14 0;
#X connect 12 0 11 0;
#X connect 12 0 30 0;
#X connect 13 0 4 0;
#X connect 14 0 16 0;
#X connect 15 0 16 1;
#X connect 15 0 17 0;
#X connect 16 0 13 0;
#X connect 16 0 15 0;
#X connect 17 0 13 1;
#X connect 18 0 8 1;
#X connect 19 0 20 0;
#X connect 19 0 21 0;
#X connect 19 0 22 0;
#X connect 19 0 41 0;
#X connect 19 0 43 0;
#X connect 19 0 42 0;
#X connect 19 0 12 0;
#X connect 19 0 7 0;
#X connect 20 0 10 0;
#X connect 21 0 15 0;
#X connect 22 0 4 0;
#X connect 24 0 25 0;
#X connect 25 0 27 0;
#X connect 26 0 44 0;
#X connect 27 0 26 0;
#X connect 28 0 27 1;
#X connect 29 0 31 0;
#X connect 29 0 33 0;
#X connect 30 0 32 0;
#X connect 31 0 28 0;
#X connect 32 0 29 0;
#X connect 33 0 29 1;
#X connect 33 0 40 0;
#X connect 34 0 36 0;
#X connect 35 0 28 0;
#X connect 36 0 38 0;
#X connect 37 0 38 1;
#X connect 37 0 39 0;
#X connect 38 0 35 0;
#X connect 38 0 37 0;
#X connect 39 0 35 1;
#X connect 40 0 31 1;
#X connect 41 0 33 0;
#X connect 42 0 37 0;
#X connect 43 0 28 0;
